<?xml version="1.0" standalone="no"?><!DOCTYPE svg PUBLIC "-//W3C//DTD SVG 1.1//EN" "http://www.w3.org/Graphics/SVG/1.1/DTD/svg11.dtd"><svg t="1531811508916" class="icon" style="" viewBox="0 0 1024 1024" version="1.1" xmlns="http://www.w3.org/2000/svg" p-id="3671" xmlns:xlink="http://www.w3.org/1999/xlink" width="24" height="24"><defs><style type="text/css"></style></defs><path d="M726.016 512q0 18.005333-13.013333 29.994667t-31.018667 11.989333l-425.984 0-169.984 171.989333 0-598.016q0-18.005333 11.989333-29.994667t29.994667-11.989333l553.984 0q18.005333 0 31.018667 11.989333t13.013333 29.994667l0 384zM896 256q18.005333 0 29.994667 11.989333t11.989333 29.994667l0 640-169.984-169.984-470.016 0q-18.005333 0-29.994667-11.989333t-11.989333-29.994667l0-86.016 553.984 0 0-384 86.016 0z" p-id="3672" fill="#a2a2ae"></path></svg>