<?xml version="1.0" encoding="utf-8"?>
<!-- Generator: Adobe Illustrator 23.0.0, SVG Export Plug-In . SVG Version: 6.00 Build 0)  -->
<svg version="1.1" id="图层_1" xmlns="http://www.w3.org/2000/svg" xmlns:xlink="http://www.w3.org/1999/xlink" x="0px" y="0px"
	 viewBox="0 0 1025 1024" style="enable-background:new 0 0 1025 1024;" xml:space="preserve">
<style type="text/css">
	.st0{fill:url(#SVGID_1_);}
	.st1{fill:url(#SVGID_2_);}
	.st2{fill:url(#SVGID_3_);}
	.st3{fill:url(#SVGID_4_);}
	.st4{fill:url(#SVGID_5_);}
	.st5{fill:url(#SVGID_6_);}
	.st6{fill:url(#SVGID_7_);}
</style>
<g>
	<linearGradient id="SVGID_1_" gradientUnits="userSpaceOnUse" x1="147.358" y1="875.8483" x2="852.4599" y2="170.7464">
		<stop  offset="0" style="stop-color:#009DDE"/>
		<stop  offset="0.5" style="stop-color:#694D9F"/>
		<stop  offset="1" style="stop-color:#ED3554"/>
	</linearGradient>
	<path class="st0" d="M334.8,715.1l-207.3,23.3l121.7-280.9l-124.7-170l303.1-34.5l82.4-189.3l180.4,245.2l207.4-23.3L776.7,565.2
		l123.8,168.8l-301.6,34.4l-83.6,192.1L334.8,715.1z M421,696.5c-8,3.9-16.5,7.1-25.2,9.6l-7.9,2.2l116.9,158.9l41.5-95.5l-7.5-1
		c-40.8-5.2-78-27.2-102-60.3l-11.6-16.1L421,696.5z M380.3,552.4l94.3,130.4c19.2,26.5,50.1,42.3,82.9,42.3c3.8,0,7.6-0.2,11.3-0.6
		l246-28l-98-133.6c-4.8-6.6-10.5-12.6-16.7-17.8l-5.7-4.8l-70.2,158.5L502.2,537L380.3,552.4z M384.4,393.5
		c-36.5,3.8-68.3,27.3-83,61.1l-98.9,228.1l164.2-18.4c8.1-0.9,16.1-2.8,23.7-5.6l7-2.6L296,515.8l200.3-25.4L544,376.6L384.4,393.5
		z M539.4,508.6l74.2,98.3L659,504.7l19.9-45c14.9-33.7,10.7-73.1-11.2-102.7L520.5,156.8l-66.2,152.1c-3.3,7.5-5.6,15.4-7,23.5
		l-1.3,7.4l171.7-18.2L539.4,508.6z M719.8,352.8l2.9,7c15.9,38.1,15.5,81.4-1.1,118.9l-8,18.1l3.9,2.7c7.4,5,14.4,10.8,20.8,17.1
		l5.9,5.8l78.5-181.2L719.8,352.8z M210.1,325l62.6,85.3l4.6-5.9c24.9-32.3,62.2-53.3,102.3-57.5l19.6-2.1l0.3-4.8
		c0.7-9.9,2.3-19.7,5-29.3l2.2-8.1L210.1,325z"/>
	<linearGradient id="SVGID_2_" gradientUnits="userSpaceOnUse" x1="224.3179" y1="952.808" x2="929.4197" y2="247.7062">
		<stop  offset="0" style="stop-color:#009DDE"/>
		<stop  offset="0.5" style="stop-color:#694D9F"/>
		<stop  offset="1" style="stop-color:#ED3554"/>
	</linearGradient>
	<path class="st1" d="M468.8,964C338.5,951.5,221.6,883.8,145,776.5l52.4-5.9c8.7,10.7,17.9,20.9,27.4,30.4
		c56.8,57.1,128,95.6,206,111.5L468.8,964z"/>
	<linearGradient id="SVGID_3_" gradientUnits="userSpaceOnUse" x1="425.4664" y1="1153.9565" x2="1130.5682" y2="448.8547">
		<stop  offset="0" style="stop-color:#009DDE"/>
		<stop  offset="0.5" style="stop-color:#694D9F"/>
		<stop  offset="1" style="stop-color:#ED3554"/>
	</linearGradient>
	<path class="st2" d="M578,915.5c84.4-13.6,161.2-53.2,222.2-114.5c5.5-5.5,11-11.4,16.4-17.5l63.6-7.2
		c-76.3,107.2-193.1,175-323.3,187.7L578,915.5z"/>
	<linearGradient id="SVGID_4_" gradientUnits="userSpaceOnUse" x1="353.8269" y1="1082.317" x2="1058.9287" y2="377.2152">
		<stop  offset="0" style="stop-color:#009DDE"/>
		<stop  offset="0.5" style="stop-color:#694D9F"/>
		<stop  offset="1" style="stop-color:#ED3554"/>
	</linearGradient>
	<path class="st3" d="M893.1,656.9c17.4-46.2,26.2-94.9,26.2-144.9c0-44.1-6.9-87.5-20.6-128.9l25.5-58.8
		c26.8,59,40.3,122.1,40.3,187.7c0,65.5-13.5,128.5-40.2,187.5L893.1,656.9z"/>
	<linearGradient id="SVGID_5_" gradientUnits="userSpaceOnUse" x1="-57.8854" y1="670.6049" x2="647.2166" y2="-34.497">
		<stop  offset="0" style="stop-color:#009DDE"/>
		<stop  offset="0.5" style="stop-color:#694D9F"/>
		<stop  offset="1" style="stop-color:#ED3554"/>
	</linearGradient>
	<path class="st4" d="M101,700.1C74.1,640.9,60.5,577.7,60.5,512c0-66.1,13.8-129.6,40.9-189.1l31.1,42.5
		c-17.8,46.7-26.9,96-26.9,146.6c0,44.3,7,87.8,20.7,129.4L101,700.1z"/>
	<linearGradient id="SVGID_6_" gradientUnits="userSpaceOnUse" x1="-129.3651" y1="599.1251" x2="575.7368" y2="-105.9768">
		<stop  offset="0" style="stop-color:#009DDE"/>
		<stop  offset="0.5" style="stop-color:#694D9F"/>
		<stop  offset="1" style="stop-color:#ED3554"/>
	</linearGradient>
	<path class="st5" d="M146.9,245C223.4,139.3,339.5,72.5,468.5,60l-21.1,48.5c-84.6,13.6-161.4,53.1-222.5,114.5
		c-4.6,4.6-9.3,9.5-13.9,14.7L146.9,245z"/>
	<linearGradient id="SVGID_7_" gradientUnits="userSpaceOnUse" x1="71.8037" y1="800.2939" x2="776.9056" y2="95.1921">
		<stop  offset="0" style="stop-color:#009DDE"/>
		<stop  offset="0.5" style="stop-color:#694D9F"/>
		<stop  offset="1" style="stop-color:#ED3554"/>
	</linearGradient>
	<path class="st6" d="M827.6,253.5c-8.7-10.7-17.9-20.9-27.4-30.5c-56.8-57-127.8-95.5-205.7-111.5L556.6,60
		C686.7,72.6,803.5,140.4,880,247.6L827.6,253.5z"/>
</g>
</svg>
