<?xml version="1.0" standalone="no"?><!DOCTYPE svg PUBLIC "-//W3C//DTD SVG 1.1//EN" "http://www.w3.org/Graphics/SVG/1.1/DTD/svg11.dtd"><svg t="1531811684092" class="icon" style="" viewBox="0 0 1024 1024" version="1.1" xmlns="http://www.w3.org/2000/svg" p-id="4641" xmlns:xlink="http://www.w3.org/1999/xlink" width="24" height="24"><defs><style type="text/css"></style></defs><path d="M510.139118 510.216377c-59.786665 0-115.995851-23.283286-158.272723-65.562205-42.277896-42.278919-65.561182-98.492198-65.561182-158.282956 0-59.786665 23.283286-115.995851 65.561182-158.27477 42.277896-42.277896 98.487082-65.561182 158.272723-65.561182 59.790758 0 116.003014 23.283286 158.282956 65.561182 42.278919 42.277896 65.563228 98.488105 65.563228 158.27477 0 59.791781-23.284309 116.004037-65.563228 158.282956S569.930899 510.216377 510.139118 510.216377zM510.139118 88.115873c-109.317755 0-198.253296 88.937588-198.253296 198.255343 0 109.322871 88.936565 198.264553 198.253296 198.264553 109.323894 0 198.265576-88.941682 198.265576-198.264553C708.404694 177.053462 619.463012 88.115873 510.139118 88.115873z" p-id="4642" fill="#a2a2ae"></path><path d="M592.01487 951.282838l-529.049305 0 0-12.791327c0-61.008492 11.596106-120.446209 34.944883-176.662559 22.577205-54.358025 54.729485-103.286388 95.80602-145.423067 41.196261-42.261523 89.030709-75.477019 142.293797-98.722442 55.347562-24.155143 114.006544-36.404118 174.406169-36.404118 53.43705 0 107.426685 10.686387 160.499437 31.763424l-9.448186 23.77652c-50.055023-19.877723-100.886735-29.956266-151.076834-29.956266-228.67619 0-415.489946 186.738032-422.143483 418.838204l503.767502 0L592.01487 951.282838z" p-id="4643" fill="#a2a2ae"></path><path d="M754.360352 955.756733c-112.328321 0-203.712635-91.390453-203.712635-203.723891 0-112.330368 91.385337-203.717751 203.712635-203.717751 112.333438 0 203.723891 91.387383 203.723891 203.717751C958.084243 864.367303 866.69379 955.756733 754.360352 955.756733zM754.360352 573.895699c-98.222045 0-178.132026 79.912028-178.132026 178.137143 0 98.228185 79.909981 178.143283 178.132026 178.143283 98.228185 0 178.143283-79.915098 178.143283-178.143283C932.503635 653.807726 852.588537 573.895699 754.360352 573.895699z" p-id="4644" fill="#a2a2ae"></path><path d="M605.31785 735.36523l282.432511 0 0 25.582655-282.432511 0 0-25.582655Z" p-id="4645" fill="#a2a2ae"></path><path d="M735.277738 605.405343l25.582655 0 0 280.385898-25.582655 0 0-280.385898Z" p-id="4646" fill="#a2a2ae"></path></svg>