<?xml version="1.0" standalone="no"?><!DOCTYPE svg PUBLIC "-//W3C//DTD SVG 1.1//EN" "http://www.w3.org/Graphics/SVG/1.1/DTD/svg11.dtd"><svg t="1531811277881" class="icon" style="" viewBox="0 0 1024 1024" version="1.1" xmlns="http://www.w3.org/2000/svg" p-id="3281" xmlns:xlink="http://www.w3.org/1999/xlink" width="24" height="24"><defs><style type="text/css"></style></defs><path d="M807.428 211.379l-590.856 0c-59.83 0-108.824 48.994-108.824 108.824l0 383.707c0 59.83 48.994 108.824 108.824 108.824l590.969 0c59.83 0 108.824-48.994 108.824-108.824l0-383.707c-0.112-59.83-49.106-108.824-108.937-108.824l0 0zM216.572 267.823l590.969 0c13.885 0 26.98 5.531 36.914 15.466 3.726 3.726 6.773 7.902 9.257 12.418-1.242 0.564-2.483 1.355-3.612 2.145l-338.1 236.614-6.999-4.967-330.988-231.759c-1.129-0.79-2.371-1.581-3.612-2.145 2.371-4.516 5.531-8.692 9.257-12.418 9.934-9.821 23.029-15.352 36.914-15.352l0 0zM844.343 740.712c-9.934 9.934-23.029 15.466-36.914 15.466l-590.856 0c-13.885 0-26.98-5.531-36.914-15.466-9.934-9.934-15.466-23.029-15.466-36.914l0-348.937 332.568 232.888c0.338 0.226 0.677 0.452 1.016 0.677 3.951 2.483 8.693 3.951 13.547 4.064l1.467 0c4.854-0.112 9.483-1.467 13.547-4.064l0 0c0.338-0.226 0.677-0.452 1.016-0.677l0.338-0.338 332.117-232.55 0 349.05c0 13.772-5.531 26.868-15.466 36.802l0 0zM844.343 740.712z" p-id="3282" fill="#a2a2ae"></path></svg>