<?xml version="1.0" encoding="UTF-8"?>
<svg width="300px" height="207px" viewBox="0 0 300 207" version="1.1" xmlns="http://www.w3.org/2000/svg" xmlns:xlink="http://www.w3.org/1999/xlink">
    <!-- Generator: Sketch 54.1 (76490) - https://sketchapp.com -->
    <title>编组 7</title>
    <desc>Created with Sketch.</desc>
    <defs>
        <linearGradient x1="50%" y1="0%" x2="50%" y2="100%" id="linearGradient-1">
            <stop stop-color="#DFE6F7" stop-opacity="0.449355332" offset="0%"></stop>
            <stop stop-color="#F5F7FD" stop-opacity="0" offset="100%"></stop>
        </linearGradient>
        <linearGradient x1="0%" y1="50%" x2="100%" y2="50%" id="linearGradient-2">
            <stop stop-color="#E1E7F7" offset="0%"></stop>
            <stop stop-color="#E2E8F8" stop-opacity="0.204053759" offset="100%"></stop>
        </linearGradient>
        <linearGradient x1="0%" y1="50%" x2="100%" y2="50%" id="linearGradient-3">
            <stop stop-color="#E1E7F7" offset="0%"></stop>
            <stop stop-color="#E2E8F8" stop-opacity="0.204053759" offset="100%"></stop>
        </linearGradient>
        <linearGradient x1="50%" y1="100%" x2="50%" y2="0%" id="linearGradient-4">
            <stop stop-color="#E1E7F7" offset="0%"></stop>
            <stop stop-color="#E2E8F8" stop-opacity="0.204053759" offset="100%"></stop>
        </linearGradient>
        <linearGradient x1="50%" y1="100%" x2="50%" y2="0%" id="linearGradient-5">
            <stop stop-color="#E1E7F7" offset="0%"></stop>
            <stop stop-color="#E2E8F8" stop-opacity="0.204053759" offset="100%"></stop>
        </linearGradient>
        <linearGradient x1="0%" y1="50%" x2="100%" y2="50%" id="linearGradient-6">
            <stop stop-color="#E1E7F7" offset="0%"></stop>
            <stop stop-color="#E2E8F8" stop-opacity="0.204053759" offset="100%"></stop>
        </linearGradient>
        <linearGradient x1="0%" y1="50%" x2="100%" y2="50%" id="linearGradient-7">
            <stop stop-color="#E1E7F7" offset="0%"></stop>
            <stop stop-color="#E2E8F8" stop-opacity="0.204053759" offset="100%"></stop>
        </linearGradient>
    </defs>
    <g id="页面1" stroke="none" stroke-width="1" fill="none" fill-rule="evenodd">
        <g id="暂无数据" transform="translate(-810.000000, -150.000000)">
            <g id="编组-7" transform="translate(810.000000, 150.000000)">
                <path d="M0.111343804,206.647574 C0.037339539,205.534245 0,204.415511 0,203.291759 C0,155.634137 67.1572875,117 150,117 C232.842712,117 300,155.634137 300,203.291759 C300,204.415511 299.96266,205.534245 299.888656,206.647574 L0.111342183,206.64755 Z" id="形状结合" fill="url(#linearGradient-1)"></path>
                <path d="M96.75,26.92025 L96.75,27 L66,27 L66,26.9931842 C65.8755599,26.997715 65.7505468,27 65.625,27 C60.0331169,27 55.5,22.4668831 55.5,16.875 C55.5,11.2831169 60.0331169,6.75 65.625,6.75 C66.8716286,6.75 68.0656363,6.97529674 69.1685276,7.38739467 C70.9762754,3.0493913 75.257026,0 80.25,0 C86.877417,0 92.25,5.372583 92.25,12 C92.25,12.0026123 92.2499992,12.0052244 92.2499975,12.0078362 C93.2729104,11.5219029 94.4172021,11.25 95.625,11.25 C99.9742424,11.25 103.5,14.7757576 103.5,19.125 C103.5,23.0922809 100.566331,26.3743667 96.75,26.92025 Z" id="形状结合" fill="url(#linearGradient-2)"></path>
                <path d="M239.25,45 L219,45 C215.272078,45 212.25,41.9779221 212.25,38.25 C212.25,34.5220779 215.272078,31.5 219,31.5 C219.736108,31.5 220.444696,31.6178298 221.10793,31.8356572 C222.297228,28.9953909 225.10309,27 228.375,27 C232.724242,27 236.25,30.5257576 236.25,34.875 C236.25,35.0703451 236.242887,35.2640289 236.228907,35.4558067 C237.083248,34.8536476 238.125325,34.5 239.25,34.5 C242.149495,34.5 244.5,36.8505051 244.5,39.75 C244.5,42.6494949 242.149495,45 239.25,45 Z" id="形状结合复制" fill="url(#linearGradient-3)"></path>
                <g id="编组-6" transform="translate(46.500000, 123.000000)">
                    <path d="M16.9294559,7.10542736e-14 C9.6362072,5.69587582 5.65415228,11.5279262 4.98329117,17.496151 C3.9769995,26.4484883 -2.63907907,31.1141015 1.17210605,37.9630985 C4.98329117,44.8120956 11.5778139,46.0765233 19.5997565,45.4443094 C27.6216992,44.8120956 34.629464,42.0984068 32.3403344,33.0132206 C30.0512049,23.9280344 26.6611481,17.2446307 26.6611481,12.9173264 C26.6611481,10.0324568 23.4172507,5.72668137 16.9294559,7.10542736e-14 Z" id="路径-3" fill="url(#linearGradient-4)"></path>
                    <rect id="矩形" fill="#D1D9F1" x="13.4421109" y="45.6334772" width="4.8" height="14.3819599"></rect>
                </g>
                <g id="编组-4" transform="translate(218.880000, 96.738307)">
                    <path d="M10.0595318,-2.13162821e-14 C5.72586225,3.43560764 3.35971367,6.95335229 2.96108606,10.553234 C2.36314463,15.9530565 -1.56814843,18.7672358 0.696468811,22.8983769 C2.96108606,27.029518 6.87957055,27.7921887 11.6462321,27.4108533 C16.4128937,27.029518 20.5769279,25.3926898 19.2167204,19.9127362 C17.856513,14.4327827 15.8421315,10.4015233 15.8421315,7.79140322 C15.8421315,6.05132317 13.9145982,3.45418876 10.0595318,-2.13162821e-14 Z" id="路径-3复制" fill="url(#linearGradient-5)"></path>
                    <rect id="矩形复制-8" fill="#D1D9F1" x="7.98734124" y="27.5249545" width="2.85217391" height="8.67483296"></rect>
                </g>
                <g id="编组-5" transform="translate(91.500000, 3.750000)">
                    <rect id="矩形复制" fill="#D1D9F1" x="0" y="7.67037862" width="108" height="147.654788" rx="7.68"></rect>
                    <rect id="矩形" fill="#E2E8F8" x="8.64" y="7.67037862" width="108" height="147.654788" rx="7.68"></rect>
                    <rect id="矩形复制-6" fill="#F3F7FF" x="17.76" y="22.5317372" width="90.24" height="123.684855" rx="4.32"></rect>
                    <rect id="矩形复制-2" fill="#D1D9F1" x="37.44" y="6.23218263" width="53.76" height="9.58797327" rx="4.79398664"></rect>
                    <rect id="矩形复制-3" fill="url(#linearGradient-6)" x="27.36" y="48.419265" width="39.36" height="9.58797327" rx="4.79398664"></rect>
                    <path d="M90.3956328,35.4755011 L87.4442349,32.5278007 C87.4436664,32.527233 87.4430983,32.5266648 87.4425305,32.5260964 C86.6921011,31.7747256 86.6928642,30.557276 87.4442349,29.8068465 C88.1968242,29.0552001 89.4160129,29.0552001 90.1686022,29.8068465 L93.12,32.7545469 L96.0713978,29.8068465 C96.8239871,29.0552001 98.0431758,29.0552001 98.7957651,29.8068465 C99.5471358,30.557276 99.5478989,31.7747256 98.7974695,32.5260964 C98.7969017,32.5266648 98.7963336,32.527233 98.7957651,32.5278007 L95.8443672,35.4755011 L98.7957651,38.4232015 C98.7963336,38.4237693 98.7969017,38.4243374 98.7974695,38.4249059 C99.5478989,39.1762766 99.5471358,40.3937262 98.7957651,41.1441557 C98.0431758,41.8958021 96.8239871,41.8958021 96.0713978,41.1441557 L93.12,38.1964553 L90.1686022,41.1441557 C89.4160129,41.8958021 88.1968242,41.8958021 87.4442349,41.1441557 C86.6928642,40.3937262 86.6921011,39.1762766 87.4425305,38.4249059 C87.4430983,38.4243374 87.4436664,38.4237693 87.4442349,38.4232015 L90.3956328,35.4755011 Z" id="形状结合" fill="#D1D9F1"></path>
                    <rect id="矩形复制-4" fill="url(#linearGradient-7)" x="27.36" y="71.4304009" width="65.76" height="9.58797327" rx="4.79398664"></rect>
                    <rect id="矩形复制-5" fill="url(#linearGradient-7)" x="27.36" y="92.5239421" width="65.76" height="9.58797327" rx="4.79398664"></rect>
                    <rect id="矩形" fill="#E2E8F8" x="45.12" y="-6.30606678e-14" width="38.4" height="9.58797327" rx="4.79398664"></rect>
                </g>
            </g>
        </g>
    </g>
</svg>