<?xml version="1.0" standalone="no"?><!DOCTYPE svg PUBLIC "-//W3C//DTD SVG 1.1//EN" "http://www.w3.org/Graphics/SVG/1.1/DTD/svg11.dtd"><svg t="1531986652258" class="icon" style="" viewBox="0 0 1029 1024" version="1.1" xmlns="http://www.w3.org/2000/svg" p-id="2403" xmlns:xlink="http://www.w3.org/1999/xlink" width="30.146484375" height="30"><defs><style type="text/css"></style></defs><path d="M804.08 612.936c15.12 7.56 22.68 20.424 22.68 38.56l0 146.296 0 26.096c0 11.328-3.4 21.16-10.2 29.48-6.808 8.312-15.504 12.488-26.088 12.488L233.616 865.856c-9.832 0-18.152-4.168-24.952-12.488-6.808-8.32-10.208-18.152-10.208-29.48l0-26.096L198.456 651.504c0-18.144 7.56-31 22.688-38.56l156.504-72.584L438.888 512c-28.728-17.392-50.656-42.336-65.776-74.848-14.368-28.736-21.552-59.352-21.552-91.864 0-9.832 0.752-19.28 2.272-28.352s3.4-17.768 5.672-26.088c10.584-38.552 29.672-70.312 57.272-95.264 27.592-24.944 59.536-37.424 95.832-37.424 37.048 0 69.568 12.848 97.536 38.552 27.976 25.712 46.88 58.216 56.704 97.536 3.792 18.896 5.68 35.912 5.68 51.032 0 30.24-6.056 59.36-18.144 87.328-15.128 34.024-37.056 59.736-65.784 77.12l64.64 30.624L804.08 612.936 804.08 612.936zM198.456 565.304c-16.632 7.552-29.672 19.096-39.128 34.584-9.448 15.504-14.176 32.704-14.176 51.608l0 146.296L28.336 797.792c-8.32 0-15.128-3.2-20.416-9.64-5.296-6.424-7.944-14.544-7.944-24.376L-0.024 625.416c0-16.64 6.048-27.224 18.144-31.76L193.92 512c-21.168-12.848-38.176-31.184-51.032-55.008-12.848-23.816-19.28-50.472-19.28-79.952 0-20.416 3.4-39.88 10.208-58.408 6.808-18.52 16.072-34.592 27.784-48.2 11.72-13.608 25.328-24.384 40.832-32.32 15.496-7.936 32.32-11.904 50.472-11.904 12.096 0 23.44 1.888 34.024 5.664 10.584 3.784 20.792 8.696 30.616 14.752-12.848 31.752-19.28 64.64-19.28 98.664 0 26.472 3.784 51.984 11.344 76.552 7.56 24.568 18.144 46.688 31.752 66.344-8.312 9.08-17.008 16.256-26.08 21.544L198.456 565.304zM1010.48 593.656c12.096 6.048 18.152 16.64 18.152 31.76l0 138.368c0 9.832-2.648 17.952-7.936 24.376-5.296 6.44-12.104 9.64-20.424 9.64l-120.208 0L880.064 651.504c0-18.904-4.736-36.112-14.176-51.608-9.456-15.504-22.12-27.032-37.992-34.592L715.616 512c-10.584-6.048-20.8-14.744-30.624-26.088 12.856-19.656 22.872-41.4 30.056-65.208 7.184-23.824 10.776-48.952 10.776-75.424 0-17.384-1.504-34.024-4.528-49.896-3.032-15.872-7.56-31.376-13.608-46.496 9.832-6.808 20.408-12.288 31.76-16.448 11.336-4.16 23.056-6.232 35.16-6.232 18.152 0 35.16 3.968 51.032 11.904 15.88 7.936 29.68 18.712 41.4 32.32s20.976 29.68 27.784 48.2c6.816 18.52 10.208 37.992 10.208 58.408 0 28.728-6.432 55-19.28 78.824s-29.112 42.16-48.768 55.008L1010.48 593.656 1010.48 593.656z" p-id="2404" fill="#3598db"></path></svg>