<?xml version="1.0" standalone="no"?><!DOCTYPE svg PUBLIC "-//W3C//DTD SVG 1.1//EN" "http://www.w3.org/Graphics/SVG/1.1/DTD/svg11.dtd"><svg t="1531373784477" class="icon" style="" viewBox="0 0 1024 1024" version="1.1" xmlns="http://www.w3.org/2000/svg" p-id="1043" xmlns:xlink="http://www.w3.org/1999/xlink" width="15" height="15"><defs><style type="text/css"></style></defs><path d="M430.72 782.4C229.44 782.4 66.272 622.08 66.272 424 66.272 225.92 229.44 65.28 430.72 65.28 632 65.28 795.2 225.92 795.2 424 795.2 622.08 632 782.4 430.72 782.4L430.72 782.4ZM1014.016 968 749.728 707.84C818.912 632.64 861.44 533.44 861.44 424 861.44 189.76 668.608 0 430.72 0 192.832 0 0 189.76 0 424 0 657.92 192.832 847.68 430.72 847.68 533.504 847.68 627.776 812.16 701.824 752.96L967.168 1014.08C980.128 1026.88 1001.088 1026.88 1014.016 1014.08 1026.976 1001.6 1026.976 980.8 1014.016 968L1014.016 968Z" p-id="1044" fill="#1296db"></path></svg>